<svg width="71" height="56" viewBox="0 0 71 56" fill="none" xmlns="http://www.w3.org/2000/svg">
<g clip-path="url(#clip0_897_5152)">
<path d="M10.2066 29.7101C8.5051 29.7101 6.99159 29.3539 5.66602 28.6417C4.36024 27.9295 3.32155 26.96 2.54995 25.7334C1.79814 24.4869 1.42223 23.0724 1.42223 21.4896C1.42223 19.887 1.79814 18.4724 2.54995 17.2458C3.32155 15.9994 4.36024 15.0299 5.66602 14.3375C6.99159 13.6252 8.5051 13.2691 10.2066 13.2691C11.8883 13.2691 13.3919 13.6252 14.7175 14.3375C16.043 15.0299 17.0817 15.9895 17.8335 17.2161C18.5853 18.4428 18.9612 19.8673 18.9612 21.4896C18.9612 23.0724 18.5853 24.4869 17.8335 25.7334C17.0817 26.96 16.043 27.9295 14.7175 28.6417C13.3919 29.3539 11.8883 29.7101 10.2066 29.7101ZM10.2066 25.9114C10.9782 25.9114 11.6706 25.7334 12.284 25.3773C12.8973 25.0211 13.382 24.5166 13.7381 23.8637C14.0942 23.1911 14.2723 22.3997 14.2723 21.4896C14.2723 20.5597 14.0942 19.7683 13.7381 19.1154C13.382 18.4625 12.8973 17.958 12.284 17.6019C11.6706 17.2458 10.9782 17.0677 10.2066 17.0677C9.43498 17.0677 8.74252 17.2458 8.1292 17.6019C7.51588 17.958 7.02126 18.4625 6.64536 19.1154C6.28923 19.7683 6.11117 20.5597 6.11117 21.4896C6.11117 22.3997 6.28923 23.1911 6.64536 23.8637C7.02126 24.5166 7.51588 25.0211 8.1292 25.3773C8.74252 25.7334 9.43498 25.9114 10.2066 25.9114ZM31.7601 13.2691C33.0263 13.2691 34.154 13.5263 35.1432 14.0407C36.1522 14.5353 36.9436 15.3069 37.5174 16.3555C38.0911 17.3843 38.378 18.7099 38.378 20.3322V29.4727H33.7484V21.0444C33.7484 19.7584 33.4615 18.8088 32.8878 18.1955C32.3338 17.5821 31.5424 17.2755 30.5137 17.2755C29.7816 17.2755 29.1188 17.4338 28.5253 17.7503C27.9515 18.0471 27.4965 18.512 27.1602 19.1451C26.8436 19.7782 26.6853 20.5894 26.6853 21.5786V29.4727H22.0558V13.5065H26.4776V17.9284L25.6466 16.5929C26.2204 15.5245 27.0415 14.7035 28.1098 14.1297C29.1782 13.556 30.3949 13.2691 31.7601 13.2691ZM50.6141 29.7101C48.794 29.7101 47.1914 29.3539 45.8065 28.6417C44.4414 27.9295 43.3829 26.96 42.6311 25.7334C41.8793 24.4869 41.5034 23.0724 41.5034 21.4896C41.5034 19.887 41.8694 18.4724 42.6014 17.2458C43.3532 15.9994 44.3721 15.0299 45.6581 14.3375C46.9441 13.6252 48.3983 13.2691 50.0206 13.2691C51.5836 13.2691 52.9883 13.6054 54.2347 14.2781C55.5009 14.931 56.5001 15.8807 57.2321 17.1271C57.9641 18.3537 58.3301 19.8277 58.3301 21.5489C58.3301 21.727 58.3202 21.9347 58.3004 22.1722C58.2807 22.3898 58.2609 22.5975 58.2411 22.7954H45.2723V20.0948H55.8076L54.027 20.896C54.027 20.0651 53.8588 19.343 53.5225 18.7296C53.1861 18.1163 52.7212 17.6415 52.1277 17.3052C51.5341 16.949 50.8417 16.771 50.0503 16.771C49.2589 16.771 48.5566 16.949 47.9432 17.3052C47.3497 17.6415 46.8848 18.1262 46.5484 18.7593C46.2121 19.3726 46.0439 20.1047 46.0439 20.9554V21.6676C46.0439 22.5382 46.2319 23.3098 46.6078 23.9824C47.0035 24.6353 47.5475 25.1398 48.24 25.496C48.9522 25.8323 49.7832 26.0005 50.7329 26.0005C51.5836 26.0005 52.3255 25.8719 52.9586 25.6147C53.6115 25.3575 54.205 24.9717 54.7392 24.4573L57.2024 27.1282C56.4704 27.9591 55.5504 28.6021 54.4425 29.0572C53.3345 29.4924 52.0584 29.7101 50.6141 29.7101Z" fill="#223D94"/>
<path d="M6.25183 34.3503L5.40647 34.5896C5.3533 34.4487 5.27488 34.3118 5.1712 34.1789C5.07018 34.0433 4.93194 33.9316 4.75649 33.8439C4.58104 33.7562 4.3564 33.7123 4.08259 33.7123C3.70776 33.7123 3.39539 33.7987 3.14551 33.9715C2.89828 34.1416 2.77466 34.3583 2.77466 34.6215C2.77466 34.8554 2.85973 35.0402 3.02987 35.1757C3.2 35.3113 3.46584 35.4243 3.82738 35.5147L4.73655 35.738C5.28418 35.8709 5.69224 36.0743 5.96074 36.3481C6.22924 36.6193 6.36349 36.9688 6.36349 37.3968C6.36349 37.7477 6.26247 38.0614 6.06043 38.3379C5.86105 38.6144 5.58192 38.8324 5.22304 38.9919C4.86415 39.1514 4.44679 39.2311 3.97094 39.2311C3.34621 39.2311 2.82916 39.0955 2.41977 38.8244C2.01037 38.5532 1.75118 38.1571 1.64219 37.6361L2.53541 37.4128C2.62047 37.7424 2.78131 37.9897 3.0179 38.1545C3.25716 38.3193 3.56952 38.4017 3.95499 38.4017C4.39362 38.4017 4.74187 38.3087 4.99973 38.1226C5.26025 37.9338 5.39052 37.7079 5.39052 37.4447C5.39052 37.232 5.31608 37.0539 5.16721 36.9103C5.01834 36.7641 4.78972 36.6551 4.48135 36.5834L3.46052 36.3441C2.8996 36.2112 2.48755 36.0052 2.22437 35.726C1.96385 35.4442 1.83359 35.092 1.83359 34.6693C1.83359 34.3237 1.93062 34.018 2.12468 33.7522C2.32141 33.4863 2.58857 33.2777 2.92619 33.1261C3.26646 32.9746 3.65193 32.8988 4.08259 32.8988C4.6887 32.8988 5.16455 33.0318 5.51014 33.2976C5.85839 33.5634 6.10562 33.9143 6.25183 34.3503ZM10.4438 32.9786V33.7761H7.26966V32.9786H10.4438ZM8.19478 31.5112H9.13585V37.349C9.13585 37.6148 9.1744 37.8142 9.25149 37.9471C9.33124 38.0774 9.43226 38.1651 9.55455 38.2103C9.67949 38.2528 9.81108 38.2741 9.94932 38.2741C10.053 38.2741 10.1381 38.2688 10.2045 38.2581C10.271 38.2449 10.3242 38.2342 10.364 38.2262L10.5554 39.0716C10.4916 39.0955 10.4026 39.1195 10.2883 39.1434C10.174 39.17 10.0291 39.1833 9.85362 39.1833C9.58778 39.1833 9.32726 39.1261 9.07205 39.0118C8.8195 38.8975 8.60949 38.7234 8.44201 38.4894C8.27719 38.2555 8.19478 37.9604 8.19478 37.6042V31.5112ZM14.3616 39.2311C13.7714 39.2311 13.2623 39.1009 12.8343 38.8403C12.409 38.5772 12.0807 38.2103 11.8494 37.7398C11.6208 37.2666 11.5065 36.7163 11.5065 36.0889C11.5065 35.4615 11.6208 34.9086 11.8494 34.4301C12.0807 33.9489 12.4023 33.5741 12.8144 33.3056C13.2291 33.0344 13.7129 32.8988 14.2659 32.8988C14.5849 32.8988 14.8999 32.952 15.2109 33.0583C15.522 33.1647 15.8051 33.3375 16.0603 33.5767C16.3155 33.8133 16.5189 34.127 16.6704 34.5178C16.8219 34.9086 16.8977 35.3897 16.8977 35.9613V36.3601H12.1764V35.5466H15.9407C15.9407 35.201 15.8715 34.8926 15.7333 34.6215C15.5977 34.3503 15.4037 34.1363 15.1511 33.9795C14.9012 33.8226 14.6062 33.7442 14.2659 33.7442C13.891 33.7442 13.5667 33.8372 13.2929 34.0233C13.0218 34.2068 12.8131 34.446 12.6669 34.7411C12.5206 35.0362 12.4475 35.3525 12.4475 35.6901V36.2325C12.4475 36.695 12.5273 37.0871 12.6868 37.4088C12.849 37.7278 13.0736 37.971 13.3607 38.1385C13.6478 38.3033 13.9814 38.3858 14.3616 38.3858C14.6088 38.3858 14.8321 38.3512 15.0315 38.2821C15.2335 38.2103 15.4077 38.104 15.5539 37.9631C15.7001 37.8195 15.8131 37.6414 15.8928 37.4287L16.802 37.6839C16.7063 37.9923 16.5454 38.2635 16.3195 38.4974C16.0935 38.7287 15.8144 38.9095 15.4821 39.0397C15.1498 39.1673 14.7763 39.2311 14.3616 39.2311ZM18.3292 41.4004V32.9786H19.2384V33.9516H19.35C19.4192 33.8452 19.5149 33.7096 19.6372 33.5448C19.7621 33.3773 19.9402 33.2285 20.1715 33.0982C20.4054 32.9653 20.7218 32.8988 21.1205 32.8988C21.6363 32.8988 22.0908 33.0278 22.4843 33.2856C22.8777 33.5435 23.1848 33.909 23.4054 34.3822C23.6261 34.8554 23.7364 35.4137 23.7364 36.057C23.7364 36.7056 23.6261 37.2679 23.4054 37.7437C23.1848 38.2169 22.8791 38.5838 22.4883 38.8443C22.0975 39.1022 21.6469 39.2311 21.1365 39.2311C20.743 39.2311 20.428 39.166 20.1914 39.0357C19.9548 38.9028 19.7727 38.7526 19.6451 38.5851C19.5175 38.415 19.4192 38.2741 19.35 38.1624H19.2703V41.4004H18.3292ZM19.2543 36.0411C19.2543 36.5036 19.3221 36.9117 19.4577 37.2652C19.5933 37.6161 19.7913 37.8913 20.0519 38.0907C20.3124 38.2874 20.6314 38.3858 21.0089 38.3858C21.4023 38.3858 21.7306 38.2821 21.9938 38.0747C22.2597 37.8647 22.459 37.5829 22.592 37.2294C22.7275 36.8731 22.7953 36.477 22.7953 36.0411C22.7953 35.6104 22.7289 35.2223 22.5959 34.8767C22.4657 34.5284 22.2676 34.2533 22.0018 34.0512C21.7386 33.8466 21.4076 33.7442 21.0089 33.7442C20.6261 33.7442 20.3044 33.8412 20.0439 34.0353C19.7834 34.2267 19.5866 34.4952 19.4537 34.8408C19.3208 35.1837 19.2543 35.5838 19.2543 36.0411Z" fill="#223D94"/>
<path d="M26.9219 39.2442C26.5415 39.2442 26.1961 39.1726 25.886 39.0292C25.5759 38.8833 25.3296 38.6735 25.1472 38.3999C24.9647 38.1236 24.8735 37.79 24.8735 37.3991C24.8735 37.0551 24.9413 36.7762 25.0768 36.5625C25.2123 36.3462 25.3934 36.1768 25.6202 36.0543C25.8469 35.9318 26.0971 35.8406 26.3708 35.7807C26.647 35.7181 26.9246 35.6686 27.2034 35.6321C27.5683 35.5852 27.8641 35.55 28.0908 35.5266C28.3201 35.5005 28.4869 35.4575 28.5912 35.3976C28.698 35.3376 28.7515 35.2334 28.7515 35.0849V35.0536C28.7515 34.6679 28.6459 34.3682 28.4348 34.1545C28.2263 33.9408 27.9097 33.8339 27.4849 33.8339C27.0444 33.8339 26.6991 33.9303 26.4489 34.1232C26.1987 34.316 26.0228 34.5219 25.9212 34.7408L25.0455 34.4281C25.2019 34.0632 25.4104 33.7792 25.671 33.5759C25.9342 33.37 26.2209 33.2267 26.531 33.1459C26.8438 33.0625 27.1513 33.0208 27.4536 33.0208C27.6465 33.0208 27.868 33.0442 28.1182 33.0912C28.371 33.1355 28.6146 33.228 28.8492 33.3687C29.0863 33.5094 29.2831 33.7218 29.4395 34.0059C29.5958 34.29 29.674 34.6705 29.674 35.1474V39.1035H28.7515V38.2904H28.7045C28.642 38.4207 28.5378 38.5601 28.3918 38.7087C28.2459 38.8572 28.0517 38.9836 27.8093 39.0879C27.567 39.1921 27.2712 39.2442 26.9219 39.2442ZM27.0627 38.4155C27.4275 38.4155 27.7351 38.3438 27.9853 38.2005C28.238 38.0572 28.4283 37.8721 28.556 37.6454C28.6863 37.4186 28.7515 37.1802 28.7515 36.93V36.0856C28.7124 36.1325 28.6264 36.1755 28.4934 36.2146C28.3631 36.2511 28.212 36.2837 28.04 36.3123C27.8706 36.3384 27.7051 36.3619 27.5435 36.3827C27.3845 36.401 27.2555 36.4166 27.1565 36.4296C26.9167 36.4609 26.6926 36.5117 26.4841 36.5821C26.2782 36.6498 26.1114 36.7528 25.9837 36.8909C25.8586 37.0264 25.7961 37.2115 25.7961 37.446C25.7961 37.7666 25.9147 38.0089 26.1518 38.1731C26.3916 38.3347 26.6952 38.4155 27.0627 38.4155ZM32.2805 35.4914V39.1035H31.3579V31.0975H32.2805V34.0372H32.3587C32.4994 33.7271 32.7105 33.4808 32.992 33.2983C33.276 33.1133 33.6539 33.0208 34.1256 33.0208C34.5348 33.0208 34.8931 33.1029 35.2007 33.2671C35.5082 33.4287 35.7467 33.6775 35.9161 34.0137C36.0881 34.3473 36.1741 34.7721 36.1741 35.2881V39.1035H35.2515V35.3507C35.2515 34.8738 35.1277 34.505 34.8801 34.2444C34.6351 33.9812 34.295 33.8495 33.8598 33.8495C33.5575 33.8495 33.2865 33.9134 33.0467 34.0411C32.8095 34.1688 32.6219 34.3551 32.4838 34.6001C32.3483 34.8451 32.2805 35.1422 32.2805 35.4914ZM40.3794 39.2286C39.8008 39.2286 39.3018 39.1009 38.8822 38.8455C38.4652 38.5875 38.1433 38.2279 37.9166 37.7666C37.6925 37.3027 37.5804 36.7632 37.5804 36.1482C37.5804 35.5331 37.6925 34.991 37.9166 34.5219C38.1433 34.0502 38.4587 33.6827 38.8626 33.4195C39.2692 33.1537 39.7435 33.0208 40.2856 33.0208C40.5983 33.0208 40.9071 33.0729 41.2121 33.1772C41.517 33.2814 41.7945 33.4508 42.0447 33.6854C42.2949 33.9173 42.4943 34.2248 42.6428 34.6079C42.7914 34.991 42.8656 35.4627 42.8656 36.0231V36.414H38.2371V35.6165H41.9274C41.9274 35.2777 41.8597 34.9754 41.7242 34.7096C41.5912 34.4437 41.401 34.2339 41.1534 34.0802C40.9084 33.9264 40.6192 33.8495 40.2856 33.8495C39.9181 33.8495 39.6002 33.9408 39.3317 34.1232C39.0659 34.303 38.8613 34.5376 38.718 34.8268C38.5746 35.1161 38.503 35.4263 38.503 35.7572V36.2889C38.503 36.7424 38.5812 37.1268 38.7375 37.4421C38.8965 37.7548 39.1167 37.9933 39.3982 38.1575C39.6796 38.3191 40.0067 38.3999 40.3794 38.3999C40.6218 38.3999 40.8407 38.366 41.0361 38.2982C41.2342 38.2279 41.4049 38.1236 41.5482 37.9855C41.6916 37.8448 41.8023 37.6701 41.8805 37.4616L42.7718 37.7118C42.678 38.0141 42.5203 38.28 42.2988 38.5093C42.0773 38.7361 41.8036 38.9133 41.4779 39.041C41.1521 39.1661 40.786 39.2286 40.3794 39.2286ZM46.036 39.2442C45.6555 39.2442 45.3102 39.1726 45.0001 39.0292C44.6899 38.8833 44.4437 38.6735 44.2612 38.3999C44.0788 38.1236 43.9876 37.79 43.9876 37.3991C43.9876 37.0551 44.0554 36.7762 44.1909 36.5625C44.3264 36.3462 44.5075 36.1768 44.7343 36.0543C44.961 35.9318 45.2112 35.8406 45.4848 35.7807C45.7611 35.7181 46.0386 35.6686 46.3175 35.6321C46.6823 35.5852 46.9781 35.55 47.2049 35.5266C47.4342 35.5005 47.601 35.4575 47.7052 35.3976C47.8121 35.3376 47.8655 35.2334 47.8655 35.0849V35.0536C47.8655 34.6679 47.76 34.3682 47.5489 34.1545C47.3404 33.9408 47.0237 33.8339 46.5989 33.8339C46.1585 33.8339 45.8132 33.9303 45.563 34.1232C45.3128 34.316 45.1369 34.5219 45.0353 34.7408L44.1596 34.4281C44.316 34.0632 44.5245 33.7792 44.7851 33.5759C45.0483 33.37 45.335 33.2267 45.6451 33.1459C45.9578 33.0625 46.2654 33.0208 46.5677 33.0208C46.7605 33.0208 46.982 33.0442 47.2322 33.0912C47.485 33.1355 47.7287 33.228 47.9633 33.3687C48.2004 33.5094 48.3972 33.7218 48.5535 34.0059C48.7099 34.29 48.7881 34.6705 48.7881 35.1474V39.1035H47.8655V38.2904H47.8186C47.7561 38.4207 47.6518 38.5601 47.5059 38.7087C47.3599 38.8572 47.1658 38.9836 46.9234 39.0879C46.681 39.1921 46.3852 39.2442 46.036 39.2442ZM46.1767 38.4155C46.5416 38.4155 46.8491 38.3438 47.0993 38.2005C47.3521 38.0572 47.5424 37.8721 47.6701 37.6454C47.8004 37.4186 47.8655 37.1802 47.8655 36.93V36.0856C47.8264 36.1325 47.7404 36.1755 47.6075 36.2146C47.4772 36.2511 47.3261 36.2837 47.1541 36.3123C46.9847 36.3384 46.8192 36.3619 46.6576 36.3827C46.4986 36.401 46.3696 36.4166 46.2706 36.4296C46.0308 36.4609 45.8067 36.5117 45.5982 36.5821C45.3923 36.6498 45.2255 36.7528 45.0978 36.8909C44.9727 37.0264 44.9102 37.2115 44.9102 37.446C44.9102 37.7666 45.0287 38.0089 45.2659 38.1731C45.5057 38.3347 45.8093 38.4155 46.1767 38.4155ZM52.7393 39.2286C52.2389 39.2286 51.7972 39.1022 51.4141 38.8494C51.031 38.594 50.7313 38.2344 50.515 37.7705C50.2987 37.304 50.1905 36.7528 50.1905 36.1169C50.1905 35.4862 50.2987 34.9389 50.515 34.475C50.7313 34.0111 51.0323 33.6528 51.418 33.4C51.8037 33.1472 52.2494 33.0208 52.755 33.0208C53.1459 33.0208 53.4547 33.0859 53.6814 33.2163C53.9108 33.344 54.0854 33.4899 54.2053 33.6541C54.3278 33.8157 54.4229 33.9486 54.4907 34.0528H54.5688V31.0975H55.4914V39.1035H54.6001V38.1809H54.4907C54.4229 38.2904 54.3265 38.4285 54.2014 38.5953C54.0763 38.7595 53.8978 38.9068 53.6658 39.0371C53.4339 39.1648 53.125 39.2286 52.7393 39.2286ZM52.8644 38.3999C53.2345 38.3999 53.5472 38.3034 53.8026 38.1106C54.058 37.9151 54.2522 37.6454 54.3851 37.3014C54.518 36.9548 54.5845 36.5547 54.5845 36.1012C54.5845 35.653 54.5193 35.2608 54.389 34.9246C54.2587 34.5858 54.0659 34.3226 53.8104 34.1349C53.555 33.9447 53.2397 33.8495 52.8644 33.8495C52.4735 33.8495 52.1477 33.9499 51.8871 34.1506C51.6291 34.3486 51.435 34.6184 51.3046 34.9598C51.1769 35.2986 51.1131 35.6791 51.1131 36.1012C51.1131 36.5287 51.1782 36.917 51.3086 37.2662C51.4415 37.6128 51.6369 37.8891 51.8949 38.0949C52.1556 38.2982 52.4787 38.3999 52.8644 38.3999Z" fill="#ED1C24"/>
<path d="M2.63751 54.1518C2.31504 54.1518 2.03687 54.0806 1.80301 53.9382C1.57059 53.7944 1.3912 53.594 1.26483 53.3369C1.13991 53.0783 1.07744 52.7776 1.07744 52.4348C1.07744 52.092 1.13991 51.7899 1.26483 51.5284C1.3912 51.2655 1.56696 51.0607 1.79211 50.914C2.01872 50.7658 2.28309 50.6917 2.58522 50.6917C2.75953 50.6917 2.93166 50.7208 3.10161 50.7789C3.27157 50.837 3.42627 50.9314 3.56571 51.0621C3.70516 51.1914 3.81628 51.3628 3.89908 51.5763C3.98188 51.7899 4.02328 52.0528 4.02328 52.3651V52.583H1.44349V52.1385H3.50035C3.50035 51.9496 3.46258 51.7811 3.38705 51.633C3.31296 51.4848 3.20693 51.3679 3.06893 51.2822C2.93239 51.1965 2.77115 51.1536 2.58522 51.1536C2.38041 51.1536 2.20319 51.2045 2.05358 51.3062C1.90541 51.4064 1.79139 51.5371 1.7115 51.6983C1.6316 51.8596 1.59166 52.0324 1.59166 52.2169V52.5132C1.59166 52.766 1.63523 52.9802 1.72239 53.156C1.811 53.3303 1.93374 53.4632 2.09062 53.5547C2.2475 53.6448 2.4298 53.6898 2.63751 53.6898C2.7726 53.6898 2.89462 53.671 3.00356 53.6332C3.11396 53.594 3.2091 53.5359 3.289 53.4589C3.36889 53.3804 3.43062 53.2831 3.4742 53.1669L3.97098 53.3064C3.91869 53.4749 3.83081 53.623 3.70734 53.7508C3.58387 53.8772 3.43135 53.976 3.24978 54.0472C3.0682 54.1169 2.86412 54.1518 2.63751 54.1518ZM4.80549 54.082V50.7353H5.30227V51.2582H5.34585C5.41557 51.0795 5.52815 50.9408 5.68357 50.8421C5.839 50.7418 6.02566 50.6917 6.24354 50.6917C6.46433 50.6917 6.64809 50.7418 6.7948 50.8421C6.94296 50.9408 7.05844 51.0795 7.14124 51.2582H7.1761C7.2618 51.0854 7.39035 50.9481 7.56176 50.8464C7.73316 50.7433 7.9387 50.6917 8.17838 50.6917C8.47761 50.6917 8.72237 50.7854 8.91266 50.9728C9.10295 51.1587 9.19809 51.4485 9.19809 51.8422V54.082H8.68388V51.8422C8.68388 51.5952 8.61633 51.4187 8.48124 51.3127C8.34615 51.2067 8.18709 51.1536 8.00407 51.1536C7.76875 51.1536 7.58645 51.2248 7.45717 51.3672C7.32789 51.5081 7.26325 51.6867 7.26325 51.9032V54.082H6.74032V51.7899C6.74032 51.5996 6.67859 51.4463 6.55512 51.3301C6.43165 51.2125 6.27259 51.1536 6.07795 51.1536C5.94431 51.1536 5.81939 51.1892 5.70318 51.2604C5.58843 51.3316 5.49546 51.4303 5.42429 51.5567C5.35456 51.6816 5.3197 51.8262 5.3197 51.9903V54.082H4.80549ZM10.1383 55.3371V50.7353H10.6351V51.2669H10.6961C10.7338 51.2088 10.7861 51.1347 10.8529 51.0447C10.9212 50.9532 11.0185 50.8718 11.1449 50.8007C11.2727 50.728 11.4456 50.6917 11.6635 50.6917C11.9453 50.6917 12.1937 50.7622 12.4087 50.9031C12.6236 51.044 12.7914 51.2437 12.912 51.5023C13.0325 51.7608 13.0928 52.0659 13.0928 52.4174C13.0928 52.7718 13.0325 53.079 12.912 53.339C12.7914 53.5976 12.6244 53.7981 12.4108 53.9404C12.1973 54.0813 11.9511 54.1518 11.6722 54.1518C11.4572 54.1518 11.2851 54.1162 11.1558 54.045C11.0265 53.9724 10.927 53.8903 10.8573 53.7988C10.7876 53.7058 10.7338 53.6288 10.6961 53.5678H10.6525V55.3371H10.1383ZM10.6438 52.4087C10.6438 52.6614 10.6808 52.8844 10.7549 53.0776C10.829 53.2693 10.9372 53.4197 11.0795 53.5286C11.2219 53.6361 11.3962 53.6898 11.6025 53.6898C11.8175 53.6898 11.9968 53.6332 12.1407 53.5199C12.2859 53.4051 12.3949 53.2512 12.4675 53.058C12.5416 52.8633 12.5786 52.6469 12.5786 52.4087C12.5786 52.1733 12.5423 51.9613 12.4697 51.7724C12.3985 51.5821 12.2903 51.4318 12.145 51.3214C12.0012 51.2096 11.8204 51.1536 11.6025 51.1536C11.3933 51.1536 11.2175 51.2067 11.0752 51.3127C10.9328 51.4173 10.8253 51.564 10.7527 51.7528C10.6801 51.9402 10.6438 52.1588 10.6438 52.4087ZM15.2368 54.1518C14.9347 54.1518 14.6696 54.0799 14.4415 53.936C14.2149 53.7922 14.0377 53.5911 13.9099 53.3325C13.7835 53.0739 13.7203 52.7718 13.7203 52.4261C13.7203 52.0775 13.7835 51.7732 13.9099 51.5131C14.0377 51.2531 14.2149 51.0512 14.4415 50.9074C14.6696 50.7636 14.9347 50.6917 15.2368 50.6917C15.539 50.6917 15.8033 50.7636 16.0299 50.9074C16.258 51.0512 16.4352 51.2531 16.5616 51.5131C16.6894 51.7732 16.7533 52.0775 16.7533 52.4261C16.7533 52.7718 16.6894 53.0739 16.5616 53.3325C16.4352 53.5911 16.258 53.7922 16.0299 53.936C15.8033 54.0799 15.539 54.1518 15.2368 54.1518ZM15.2368 53.6898C15.4663 53.6898 15.6552 53.631 15.8033 53.5133C15.9515 53.3957 16.0612 53.241 16.1323 53.0492C16.2035 52.8575 16.2391 52.6498 16.2391 52.4261C16.2391 52.2024 16.2035 51.9939 16.1323 51.8008C16.0612 51.6076 15.9515 51.4514 15.8033 51.3323C15.6552 51.2132 15.4663 51.1536 15.2368 51.1536C15.0073 51.1536 14.8185 51.2132 14.6703 51.3323C14.5222 51.4514 14.4125 51.6076 14.3413 51.8008C14.2701 51.9939 14.2345 52.2024 14.2345 52.4261C14.2345 52.6498 14.2701 52.8575 14.3413 53.0492C14.4125 53.241 14.5222 53.3957 14.6703 53.5133C14.8185 53.631 15.0073 53.6898 15.2368 53.6898ZM18.1827 54.082L17.1629 50.7353H17.7033L18.4267 53.2976H18.4616L19.1762 50.7353H19.7253L20.4312 53.2889H20.4661L21.1895 50.7353H21.7299L20.7101 54.082H20.2046L19.4725 51.511H19.4203L18.6882 54.082H18.1827ZM23.699 54.1518C23.3765 54.1518 23.0984 54.0806 22.8645 53.9382C22.6321 53.7944 22.4527 53.594 22.3263 53.3369C22.2014 53.0783 22.1389 52.7776 22.1389 52.4348C22.1389 52.092 22.2014 51.7899 22.3263 51.5284C22.4527 51.2655 22.6285 51.0607 22.8536 50.914C23.0802 50.7658 23.3446 50.6917 23.6467 50.6917C23.821 50.6917 23.9932 50.7208 24.1631 50.7789C24.3331 50.837 24.4878 50.9314 24.6272 51.0621C24.7667 51.1914 24.8778 51.3628 24.9606 51.5763C25.0434 51.7899 25.0848 52.0528 25.0848 52.3651V52.583H22.505V52.1385H24.5618C24.5618 51.9496 24.5241 51.7811 24.4485 51.633C24.3745 51.4848 24.2684 51.3679 24.1304 51.2822C23.9939 51.1965 23.8326 51.1536 23.6467 51.1536C23.4419 51.1536 23.2647 51.2045 23.1151 51.3062C22.9669 51.4064 22.8529 51.5371 22.773 51.6983C22.6931 51.8596 22.6532 52.0324 22.6532 52.2169V52.5132C22.6532 52.766 22.6967 52.9802 22.7839 53.156C22.8725 53.3303 22.9952 53.4632 23.1521 53.5547C23.309 53.6448 23.4913 53.6898 23.699 53.6898C23.8341 53.6898 23.9561 53.671 24.0651 53.6332C24.1755 53.594 24.2706 53.5359 24.3505 53.4589C24.4304 53.3804 24.4921 53.2831 24.5357 53.1669L25.0325 53.3064C24.9802 53.4749 24.8923 53.623 24.7688 53.7508C24.6454 53.8772 24.4928 53.976 24.3113 54.0472C24.1297 54.1169 23.9256 54.1518 23.699 54.1518ZM25.867 54.082V50.7353H26.3638V51.2408H26.3986C26.4596 51.0752 26.57 50.9408 26.7298 50.8377C26.8896 50.7346 27.0697 50.683 27.2702 50.683C27.3079 50.683 27.3551 50.6837 27.4118 50.6852C27.4684 50.6866 27.5113 50.6888 27.5404 50.6917V51.2146C27.5229 51.2103 27.483 51.2037 27.4205 51.195C27.3595 51.1849 27.2949 51.1798 27.2266 51.1798C27.0639 51.1798 26.9186 51.2139 26.7908 51.2822C26.6644 51.349 26.5642 51.442 26.4901 51.5611C26.4175 51.6787 26.3812 51.8131 26.3812 51.9642V54.082H25.867ZM28.1499 54.082V50.7353H28.6641V54.082H28.1499ZM28.4114 50.1775C28.3111 50.1775 28.2247 50.1434 28.1521 50.0751C28.0809 50.0068 28.0453 49.9247 28.0453 49.8289C28.0453 49.733 28.0809 49.6509 28.1521 49.5827C28.2247 49.5144 28.3111 49.4803 28.4114 49.4803C28.5116 49.4803 28.5973 49.5144 28.6685 49.5827C28.7411 49.6509 28.7774 49.733 28.7774 49.8289C28.7774 49.9247 28.7411 50.0068 28.6685 50.0751C28.5973 50.1434 28.5116 50.1775 28.4114 50.1775ZM30.1201 52.0688V54.082H29.6059V50.7353H30.1027V51.2582H30.1463C30.2247 51.0883 30.3438 50.9517 30.5036 50.8486C30.6634 50.744 30.8697 50.6917 31.1224 50.6917C31.349 50.6917 31.5473 50.7382 31.7172 50.8312C31.8872 50.9227 32.0194 51.0621 32.1138 51.2495C32.2082 51.4354 32.2554 51.6707 32.2554 51.9555V54.082H31.7412V51.9903C31.7412 51.7274 31.6729 51.5226 31.5364 51.3759C31.3999 51.2277 31.2125 51.1536 30.9742 51.1536C30.8101 51.1536 30.6634 51.1892 30.5341 51.2604C30.4063 51.3316 30.3053 51.4354 30.2313 51.572C30.1572 51.7085 30.1201 51.8741 30.1201 52.0688ZM34.546 55.4068C34.2976 55.4068 34.084 55.3748 33.9054 55.3109C33.7267 55.2485 33.5778 55.1657 33.4587 55.0625C33.341 54.9608 33.2474 54.8519 33.1776 54.7357L33.5873 54.4481C33.6337 54.5091 33.6926 54.5788 33.7637 54.6573C33.8349 54.7371 33.9322 54.8061 34.0557 54.8642C34.1806 54.9238 34.3441 54.9536 34.546 54.9536C34.8161 54.9536 35.0391 54.8882 35.2149 54.7575C35.3906 54.6267 35.4785 54.4219 35.4785 54.143V53.4632H35.4349C35.3972 53.5242 35.3434 53.5998 35.2737 53.6898C35.2054 53.7784 35.1067 53.8576 34.9774 53.9273C34.8495 53.9956 34.6767 54.0297 34.4588 54.0297C34.1886 54.0297 33.946 53.9658 33.7311 53.838C33.5175 53.7102 33.3483 53.5242 33.2234 53.2802C33.0999 53.0362 33.0382 52.7398 33.0382 52.3912C33.0382 52.0484 33.0985 51.7499 33.219 51.4957C33.3396 51.2401 33.5074 51.0425 33.7223 50.9031C33.9373 50.7622 34.1857 50.6917 34.4675 50.6917C34.6854 50.6917 34.8583 50.728 34.9861 50.8007C35.1154 50.8718 35.2141 50.9532 35.2824 51.0447C35.3521 51.1347 35.4059 51.2088 35.4437 51.2669H35.4959V50.7353H35.9927V54.1779C35.9927 54.4655 35.9274 54.6994 35.7966 54.8795C35.6674 55.0611 35.493 55.194 35.2737 55.2782C35.0558 55.3639 34.8132 55.4068 34.546 55.4068ZM34.5285 53.5678C34.7348 53.5678 34.9091 53.5206 35.0515 53.4262C35.1938 53.3318 35.302 53.196 35.3761 53.0187C35.4502 52.8415 35.4872 52.6295 35.4872 52.3825C35.4872 52.1414 35.4509 51.9286 35.3783 51.7441C35.3057 51.5596 35.1982 51.4151 35.0558 51.3105C34.9135 51.2059 34.7377 51.1536 34.5285 51.1536C34.3106 51.1536 34.1291 51.2088 33.9838 51.3192C33.84 51.4296 33.7318 51.5778 33.6592 51.7637C33.588 51.9496 33.5524 52.1559 33.5524 52.3825C33.5524 52.6149 33.5887 52.8205 33.6613 52.9991C33.7354 53.1763 33.8444 53.3158 33.9882 53.4175C34.1334 53.5177 34.3135 53.5678 34.5285 53.5678ZM38.9909 55.3371C38.9037 55.3371 38.826 55.3298 38.7577 55.3153C38.6894 55.3022 38.6422 55.2891 38.6161 55.2761L38.7468 54.8228C38.8717 54.8548 38.9821 54.8664 39.078 54.8577C39.1739 54.849 39.2589 54.8061 39.3329 54.7292C39.4085 54.6536 39.4775 54.5309 39.5399 54.3609L39.6358 54.0995L38.3982 50.7353H38.956L39.8798 53.4022H39.9147L40.8385 50.7353H41.3963L39.9757 54.5701C39.9118 54.743 39.8326 54.886 39.7382 54.9993C39.6438 55.1141 39.5341 55.1991 39.4092 55.2543C39.2857 55.3095 39.1463 55.3371 38.9909 55.3371ZM43.3148 54.1518C43.0127 54.1518 42.7476 54.0799 42.5195 53.936C42.2929 53.7922 42.1157 53.5911 41.9879 53.3325C41.8615 53.0739 41.7983 52.7718 41.7983 52.4261C41.7983 52.0775 41.8615 51.7732 41.9879 51.5131C42.1157 51.2531 42.2929 51.0512 42.5195 50.9074C42.7476 50.7636 43.0127 50.6917 43.3148 50.6917C43.617 50.6917 43.8813 50.7636 44.1079 50.9074C44.336 51.0512 44.5132 51.2531 44.6396 51.5131C44.7674 51.7732 44.8313 52.0775 44.8313 52.4261C44.8313 52.7718 44.7674 53.0739 44.6396 53.3325C44.5132 53.5911 44.336 53.7922 44.1079 53.936C43.8813 54.0799 43.617 54.1518 43.3148 54.1518ZM43.3148 53.6898C43.5443 53.6898 43.7332 53.631 43.8813 53.5133C44.0295 53.3957 44.1392 53.241 44.2103 53.0492C44.2815 52.8575 44.3171 52.6498 44.3171 52.4261C44.3171 52.2024 44.2815 51.9939 44.2103 51.8008C44.1392 51.6076 44.0295 51.4514 43.8813 51.3323C43.7332 51.2132 43.5443 51.1536 43.3148 51.1536C43.0853 51.1536 42.8965 51.2132 42.7483 51.3323C42.6002 51.4514 42.4905 51.6076 42.4193 51.8008C42.3481 51.9939 42.3125 52.2024 42.3125 52.4261C42.3125 52.6498 42.3481 52.8575 42.4193 53.0492C42.4905 53.241 42.6002 53.3957 42.7483 53.5133C42.8965 53.631 43.0853 53.6898 43.3148 53.6898ZM47.7254 52.7137V50.7353H48.2396V54.082H47.7254V53.5155H47.6905C47.6121 53.6855 47.4901 53.83 47.3245 53.9491C47.1589 54.0668 46.9497 54.1256 46.697 54.1256C46.4878 54.1256 46.3019 54.0799 46.1392 53.9883C45.9765 53.8954 45.8487 53.7559 45.7557 53.57C45.6627 53.3826 45.6163 53.1466 45.6163 52.8619V50.7353H46.1305V52.827C46.1305 53.071 46.1987 53.2657 46.3353 53.4109C46.4733 53.5562 46.649 53.6288 46.8626 53.6288C46.9904 53.6288 47.1204 53.5961 47.2526 53.5308C47.3862 53.4654 47.4981 53.3652 47.5881 53.2301C47.6796 53.095 47.7254 52.9229 47.7254 52.7137ZM49.1814 54.082V50.7353H49.6782V51.2408H49.7131C49.7741 51.0752 49.8845 50.9408 50.0443 50.8377C50.204 50.7346 50.3842 50.683 50.5846 50.683C50.6224 50.683 50.6696 50.6837 50.7262 50.6852C50.7829 50.6866 50.8257 50.6888 50.8548 50.6917V51.2146C50.8374 51.2103 50.7974 51.2037 50.735 51.195C50.6739 51.1849 50.6093 51.1798 50.541 51.1798C50.3783 51.1798 50.2331 51.2139 50.1053 51.2822C49.9789 51.349 49.8787 51.442 49.8046 51.5611C49.732 51.6787 49.6956 51.8131 49.6956 51.9642V54.082H49.1814ZM54.6803 50.7353V51.1711H52.8762V50.7353H54.6803ZM53.4166 54.082V50.2734C53.4166 50.0816 53.4616 49.9218 53.5517 49.794C53.6417 49.6662 53.7587 49.5703 53.9025 49.5064C54.0463 49.4425 54.1981 49.4105 54.3579 49.4105C54.4842 49.4105 54.5874 49.4207 54.6673 49.441C54.7472 49.4614 54.8067 49.4803 54.8459 49.4977L54.6978 49.9422C54.6716 49.9335 54.6353 49.9226 54.5888 49.9095C54.5438 49.8964 54.4842 49.8899 54.4102 49.8899C54.2402 49.8899 54.1175 49.9327 54.0419 50.0184C53.9679 50.1041 53.9308 50.2298 53.9308 50.3954V54.082H53.4166ZM57.5102 52.7137V50.7353H58.0244V54.082H57.5102V53.5155H57.4753C57.3969 53.6855 57.2748 53.83 57.1092 53.9491C56.9436 54.0668 56.7345 54.1256 56.4817 54.1256C56.2726 54.1256 56.0866 54.0799 55.9239 53.9883C55.7612 53.8954 55.6334 53.7559 55.5405 53.57C55.4475 53.3826 55.401 53.1466 55.401 52.8619V50.7353H55.9152V52.827C55.9152 53.071 55.9835 53.2657 56.12 53.4109C56.258 53.5562 56.4338 53.6288 56.6473 53.6288C56.7751 53.6288 56.9052 53.5961 57.0373 53.5308C57.171 53.4654 57.2828 53.3652 57.3729 53.2301C57.4644 53.095 57.5102 52.9229 57.5102 52.7137ZM60.4217 50.7353V51.1711H58.6873V50.7353H60.4217ZM59.1928 49.9335H59.707V53.1233C59.707 53.2686 59.7281 53.3775 59.7702 53.4502C59.8138 53.5213 59.869 53.5693 59.9358 53.594C60.004 53.6172 60.076 53.6288 60.1515 53.6288C60.2081 53.6288 60.2546 53.6259 60.2909 53.6201C60.3272 53.6128 60.3563 53.607 60.3781 53.6027L60.4827 54.0646C60.4478 54.0777 60.3991 54.0907 60.3367 54.1038C60.2742 54.1183 60.1951 54.1256 60.0992 54.1256C59.9539 54.1256 59.8116 54.0944 59.6721 54.0319C59.5341 53.9695 59.4194 53.8743 59.3279 53.7465C59.2378 53.6187 59.1928 53.4574 59.1928 53.2628V49.9335ZM63.3043 52.7137V50.7353H63.8185V54.082H63.3043V53.5155H63.2694C63.191 53.6855 63.069 53.83 62.9034 53.9491C62.7378 54.0668 62.5286 54.1256 62.2759 54.1256C62.0667 54.1256 61.8808 54.0799 61.7181 53.9883C61.5554 53.8954 61.4276 53.7559 61.3346 53.57C61.2416 53.3826 61.1952 53.1466 61.1952 52.8619V50.7353H61.7094V52.827C61.7094 53.071 61.7776 53.2657 61.9142 53.4109C62.0522 53.5562 62.2279 53.6288 62.4415 53.6288C62.5693 53.6288 62.6993 53.5961 62.8315 53.5308C62.9651 53.4654 63.077 53.3652 63.167 53.2301C63.2586 53.095 63.3043 52.9229 63.3043 52.7137ZM64.7603 54.082V50.7353H65.2571V51.2408H65.292C65.353 51.0752 65.4634 50.9408 65.6232 50.8377C65.783 50.7346 65.9631 50.683 66.1635 50.683C66.2013 50.683 66.2485 50.6837 66.3052 50.6852C66.3618 50.6866 66.4047 50.6888 66.4337 50.6917V51.2146C66.4163 51.2103 66.3763 51.2037 66.3139 51.195C66.2529 51.1849 66.1882 51.1798 66.1199 51.1798C65.9573 51.1798 65.812 51.2139 65.6842 51.2822C65.5578 51.349 65.4576 51.442 65.3835 51.5611C65.3109 51.6787 65.2745 51.8131 65.2745 51.9642V54.082H64.7603ZM68.3446 54.1518C68.0221 54.1518 67.7439 54.0806 67.5101 53.9382C67.2777 53.7944 67.0983 53.594 66.9719 53.3369C66.847 53.0783 66.7845 52.7776 66.7845 52.4348C66.7845 52.092 66.847 51.7899 66.9719 51.5284C67.0983 51.2655 67.274 51.0607 67.4992 50.914C67.7258 50.7658 67.9901 50.6917 68.2923 50.6917C68.4666 50.6917 68.6387 50.7208 68.8087 50.7789C68.9786 50.837 69.1333 50.9314 69.2728 51.0621C69.4122 51.1914 69.5233 51.3628 69.6061 51.5763C69.6889 51.7899 69.7303 52.0528 69.7303 52.3651V52.583H67.1506V52.1385H69.2074C69.2074 51.9496 69.1696 51.7811 69.0941 51.633C69.02 51.4848 68.914 51.3679 68.776 51.2822C68.6394 51.1965 68.4782 51.1536 68.2923 51.1536C68.0875 51.1536 67.9103 51.2045 67.7606 51.3062C67.6125 51.4064 67.4984 51.5371 67.4186 51.6983C67.3387 51.8596 67.2987 52.0324 67.2987 52.2169V52.5132C67.2987 52.766 67.3423 52.9802 67.4295 53.156C67.5181 53.3303 67.6408 53.4632 67.7977 53.5547C67.9546 53.6448 68.1369 53.6898 68.3446 53.6898C68.4797 53.6898 68.6017 53.671 68.7106 53.6332C68.821 53.594 68.9162 53.5359 68.9961 53.4589C69.0759 53.3804 69.1377 53.2831 69.1813 53.1669L69.678 53.3064C69.6258 53.4749 69.5379 53.623 69.4144 53.7508C69.2909 53.8772 69.1384 53.976 68.9568 54.0472C68.7753 54.1169 68.5712 54.1518 68.3446 54.1518Z" fill="#C5C7C8"/>
<path d="M28.3899 44.4355H1.38476V45.1659H28.3899V44.4355Z" fill="#223D94"/>
<path d="M58.9817 10.7595L44.6602 6.62105L44.3648 6.52414L49.7949 5.70401H49.7961L50.0241 5.66856L70.7743 2.53223" fill="#ED1C24"/>
<path d="M70.7743 2.53223L50.0241 5.66856L44.7382 2.62086L70.7743 2.53223Z" fill="#C11421"/>
</g>
<defs>
<clipPath id="clip0_897_5152">
<rect width="70.3927" height="56" fill="white"/>
</clipPath>
</defs>
</svg>
